<svg width="178" height="64" viewBox="0 0 178 64" fill="none" xmlns="http://www.w3.org/2000/svg">
<g clip-path="url(#clip0_1618_84011)">
<rect x="0.0410156" width="177" height="64" rx="10.6667" fill="black"/>
<path d="M41.5986 32.2418C41.6334 29.4971 43.0837 26.8999 45.3845 25.4623C43.9331 23.3555 41.5019 22.0197 38.9726 21.9393C36.2748 21.6515 33.6594 23.5799 32.2847 23.5799C30.8834 23.5799 28.7667 21.9679 26.4875 22.0155C23.5166 22.1131 20.747 23.8298 19.3016 26.4695C16.1946 31.9368 18.5121 39.9719 21.4884 44.3912C22.9775 46.5552 24.7179 48.9726 26.995 48.8868C29.2234 48.7928 30.0556 47.4426 32.7455 47.4426C35.4104 47.4426 36.1912 48.8868 38.5145 48.8323C40.9057 48.7928 42.4123 46.6587 43.8491 44.4742C44.919 42.9322 45.7423 41.228 46.2885 39.4247C43.4785 38.2168 41.6019 35.3427 41.5986 32.2418Z" fill="white"/>
<path d="M37.2133 19.0329C38.517 17.4422 39.1594 15.3977 39.0038 13.3334C37.012 13.5461 35.1721 14.5136 33.8507 16.0432C32.5586 17.5378 31.8862 19.5463 32.0133 21.5317C34.0058 21.5525 35.9647 20.6112 37.2133 19.0329Z" fill="white"/>
<path d="M121.097 30.3808V33.4897H119.141V35.5285H121.097V42.4561C121.097 44.8215 122.172 45.7677 124.875 45.7677C125.35 45.7677 125.802 45.7114 126.197 45.6438V43.6276C125.859 43.6613 125.643 43.6838 125.271 43.6838C124.06 43.6838 123.529 43.1206 123.529 41.8365V35.5285H126.197V33.4897H123.529V30.3808H121.097Z" fill="white"/>
<path d="M133.083 45.9367C136.679 45.9367 138.885 43.5374 138.885 39.5611C138.885 35.6073 136.667 33.1968 133.083 33.1968C129.486 33.1968 127.27 35.6073 127.27 39.5611C127.27 43.5374 129.475 45.9367 133.083 45.9367ZM133.083 43.7852C130.968 43.7852 129.78 42.242 129.78 39.5611C129.78 36.9027 130.968 35.3483 133.083 35.3483C135.186 35.3483 136.385 36.9027 136.385 39.5611C136.385 42.2307 135.186 43.7852 133.083 43.7852Z" fill="white"/>
<path d="M140.773 45.7003H143.205V38.4574C143.205 36.734 144.506 35.5737 146.348 35.5737C146.778 35.5737 147.502 35.6526 147.706 35.7202V33.3321C147.446 33.2646 146.982 33.2308 146.62 33.2308C145.014 33.2308 143.645 34.1094 143.295 35.3147H143.114V33.4335H140.773V45.7003Z" fill="white"/>
<path d="M153.742 35.2582C155.54 35.2582 156.716 36.5085 156.772 38.4347H150.552C150.688 36.5198 151.943 35.2582 153.742 35.2582ZM156.762 42.3884C156.309 43.3459 155.302 43.8753 153.833 43.8753C151.887 43.8753 150.632 42.5123 150.552 40.3608V40.2256H159.249V39.3808C159.249 35.5285 157.18 33.1968 153.754 33.1968C150.281 33.1968 148.076 35.6862 148.076 39.6062C148.076 43.5261 150.236 45.9367 153.764 45.9367C156.58 45.9367 158.549 44.5849 159.103 42.3884H156.762Z" fill="white"/>
<path d="M105.158 41.1702C105.346 44.1824 107.866 46.1088 111.616 46.1088C115.625 46.1088 118.133 44.089 118.133 40.8667C118.133 38.3332 116.704 36.9322 113.234 36.1266L111.37 35.6713C109.167 35.1576 108.276 34.4688 108.276 33.2662C108.276 31.7485 109.659 30.7561 111.734 30.7561C113.703 30.7561 115.063 31.7252 115.309 33.278H117.864C117.712 30.4409 115.204 28.4445 111.769 28.4445C108.076 28.4445 105.615 30.4409 105.615 33.4413C105.615 35.9165 107.01 37.3876 110.07 38.0997L112.25 38.6251C114.489 39.1505 115.473 39.921 115.473 41.2053C115.473 42.6997 113.925 43.7854 111.816 43.7854C109.554 43.7854 107.983 42.7697 107.76 41.1702H105.158Z" fill="white"/>
<path d="M79.9659 33.2308C78.2921 33.2308 76.8445 34.0643 76.0981 35.4611H75.9172V33.4335H73.5762V49.7779H76.0077V43.8416H76.2C76.8445 45.137 78.2356 45.903 79.9886 45.903C83.0986 45.903 85.0777 43.4587 85.0777 39.5613C85.0777 35.6638 83.0986 33.2308 79.9659 33.2308ZM79.276 43.729C77.2403 43.729 75.9625 42.1295 75.9625 39.5726C75.9625 37.0043 77.2403 35.4047 79.2873 35.4047C81.3457 35.4047 82.5784 36.9705 82.5784 39.5613C82.5784 42.1633 81.3457 43.729 79.276 43.729Z" fill="white"/>
<path d="M93.583 33.2308C91.909 33.2308 90.4619 34.0643 89.7157 35.4611H89.5342V33.4335H87.1934V49.7779H89.6249V43.8416H89.8171C90.4619 45.137 91.853 45.903 93.6061 45.903C96.7156 45.903 98.6946 43.4587 98.6946 39.5613C98.6946 35.6638 96.7156 33.2308 93.583 33.2308ZM92.8937 43.729C90.8577 43.729 89.5796 42.1295 89.5796 39.5726C89.5796 37.0043 90.8577 35.4047 92.9043 35.4047C94.9625 35.4047 96.1953 36.9705 96.1953 39.5613C96.1953 42.1633 94.9625 43.729 92.8937 43.729Z" fill="white"/>
<path d="M69.216 45.7001H72.0058L65.8987 28.853H63.0738L56.9668 45.7001H59.6628L61.2217 41.2286H67.6687L69.216 45.7001ZM64.3514 31.9119H64.5508L67.0006 39.0336H61.8899L64.3514 31.9119Z" fill="white"/>
<path d="M58.7383 13.7444V22.1006H61.8533C64.4242 22.1006 65.913 20.566 65.913 17.8965C65.913 15.2675 64.4123 13.7444 61.8533 13.7444H58.7383ZM60.0776 14.9258H61.7039C63.4916 14.9258 64.5498 16.026 64.5498 17.9139C64.5498 19.8307 63.5095 20.9193 61.7039 20.9193H60.0776V14.9258Z" fill="white"/>
<path d="M70.4755 22.2222C72.3768 22.2222 73.5427 20.9888 73.5427 18.9446C73.5427 16.9121 72.3709 15.6728 70.4755 15.6728C68.5742 15.6728 67.4023 16.9121 67.4023 18.9446C67.4023 20.9888 68.5682 22.2222 70.4755 22.2222ZM70.4755 21.1162C69.3574 21.1162 68.7297 20.3228 68.7297 18.9446C68.7297 17.578 69.3574 16.7788 70.4755 16.7788C71.5876 16.7788 72.2214 17.578 72.2214 18.9446C72.2214 20.3171 71.5876 21.1162 70.4755 21.1162Z" fill="white"/>
<path d="M83.4735 15.7944H82.1879L81.028 20.6066H80.9263L79.5871 15.7944H78.3554L77.0162 20.6066H76.9205L75.7546 15.7944H74.4512L76.2448 22.1007H77.5662L78.9054 17.4564H79.0071L80.3524 22.1007H81.6857L83.4735 15.7944Z" fill="white"/>
<path d="M84.957 22.1006H86.2425V18.4119C86.2425 17.4275 86.8464 16.8136 87.7971 16.8136C88.7478 16.8136 89.202 17.3174 89.202 18.3308V22.1006H90.4873V18.0181C90.4873 16.5183 89.6868 15.6728 88.2336 15.6728C87.253 15.6728 86.6073 16.0955 86.2904 16.7963H86.1947V15.7944H84.957V22.1006Z" fill="white"/>
<path d="M92.5098 22.1007H93.795V13.3334H92.5098V22.1007Z" fill="white"/>
<path d="M98.6297 22.2222C100.531 22.2222 101.697 20.9888 101.697 18.9446C101.697 16.9121 100.525 15.6728 98.6297 15.6728C96.7289 15.6728 95.5566 16.9121 95.5566 18.9446C95.5566 20.9888 96.7227 22.2222 98.6297 22.2222ZM98.6297 21.1162C97.5116 21.1162 96.8837 20.3228 96.8837 18.9446C96.8837 17.578 97.5116 16.7788 98.6297 16.7788C99.7424 16.7788 100.376 17.578 100.376 18.9446C100.376 20.3171 99.7424 21.1162 98.6297 21.1162Z" fill="white"/>
<path d="M105.523 21.1567C104.823 21.1567 104.315 20.8267 104.315 20.2591C104.315 19.7032 104.721 19.4079 105.618 19.3499L107.209 19.2515V19.7785C107.209 20.5603 106.491 21.1567 105.523 21.1567ZM105.194 22.2049C106.048 22.2049 106.76 21.8459 107.149 21.2147H107.251V22.1006H108.488V17.7923C108.488 16.4603 107.568 15.6728 105.935 15.6728C104.458 15.6728 103.406 16.3677 103.274 17.4506H104.519C104.662 17.0047 105.158 16.7499 105.876 16.7499C106.755 16.7499 107.209 17.1263 107.209 17.7923V18.3366L105.445 18.435C103.897 18.5277 103.023 19.182 103.023 20.3171C103.023 21.4694 103.939 22.2049 105.194 22.2049Z" fill="white"/>
<path d="M112.851 22.205C113.748 22.205 114.508 21.7938 114.896 21.1047H114.998V22.1007H116.23V13.3334H114.943V16.7964H114.848C114.495 16.1014 113.742 15.6903 112.851 15.6903C111.207 15.6903 110.148 16.9527 110.148 18.9447C110.148 20.9426 111.195 22.205 112.851 22.205ZM113.216 16.8079C114.292 16.8079 114.967 17.636 114.967 18.9505C114.967 20.2709 114.298 21.0873 113.216 21.0873C112.127 21.0873 111.475 20.2824 111.475 18.9447C111.475 17.6187 112.134 16.8079 113.216 16.8079Z" fill="white"/>
<path d="M124.57 22.2222C126.471 22.2222 127.637 20.9888 127.637 18.9446C127.637 16.9121 126.465 15.6728 124.57 15.6728C122.668 15.6728 121.496 16.9121 121.496 18.9446C121.496 20.9888 122.662 22.2222 124.57 22.2222ZM124.57 21.1162C123.452 21.1162 122.824 20.3228 122.824 18.9446C122.824 17.578 123.452 16.7788 124.57 16.7788C125.682 16.7788 126.315 17.578 126.315 18.9446C126.315 20.3171 125.682 21.1162 124.57 21.1162Z" fill="white"/>
<path d="M129.334 22.1006H130.619V18.4119C130.619 17.4275 131.223 16.8136 132.174 16.8136C133.125 16.8136 133.579 17.3174 133.579 18.3308V22.1006H134.865V18.0181C134.865 16.5183 134.063 15.6728 132.611 15.6728C131.63 15.6728 130.984 16.0955 130.667 16.7963H130.572V15.7944H129.334V22.1006Z" fill="white"/>
<path d="M140.786 14.2251V15.8233H139.752V16.8715H140.786V20.4328C140.786 21.6489 141.355 22.1353 142.784 22.1353C143.035 22.1353 143.274 22.1063 143.483 22.0716V21.0351C143.304 21.0524 143.191 21.064 142.993 21.064C142.354 21.064 142.073 20.7744 142.073 20.1143V16.8715H143.483V15.8233H142.073V14.2251H140.786Z" fill="white"/>
<path d="M145.213 22.1007H146.498V18.4178C146.498 17.4623 147.084 16.8195 148.137 16.8195C149.046 16.8195 149.529 17.3291 149.529 18.3367V22.1007H150.816V18.0298C150.816 16.53 149.96 15.6787 148.573 15.6787C147.592 15.6787 146.905 16.1014 146.588 16.8079H146.487V13.3334H145.213V22.1007Z" fill="white"/>
<path d="M155.452 16.7325C156.403 16.7325 157.024 17.3753 157.055 18.3655H153.766C153.837 17.3811 154.502 16.7325 155.452 16.7325ZM157.048 20.3981C156.809 20.8903 156.277 21.1625 155.5 21.1625C154.472 21.1625 153.808 20.4619 153.766 19.3558V19.2863H158.364V18.852C158.364 16.8715 157.27 15.6728 155.458 15.6728C153.622 15.6728 152.457 16.9526 152.457 18.9678C152.457 20.983 153.598 22.2222 155.464 22.2222C156.953 22.2222 157.993 21.5273 158.286 20.3981H157.048Z" fill="white"/>
</g>
<defs>
<clipPath id="clip0_1618_84011">
<rect width="177" height="64" fill="white" transform="translate(0.0410156)"/>
</clipPath>
</defs>
</svg>
