<svg width="199" height="72" viewBox="0 0 199 72" fill="none" xmlns="http://www.w3.org/2000/svg">
<rect width="199" height="72" rx="12" fill="black"/>
<path d="M46.7272 36.2719C46.7663 33.1841 48.3969 30.2623 50.9837 28.645C49.3518 26.2748 46.6185 24.772 43.7748 24.6816C40.7417 24.3578 37.8012 26.5273 36.2556 26.5273C34.6801 26.5273 32.3004 24.7137 29.7379 24.7673C26.3977 24.8771 23.2839 26.8084 21.6588 29.7781C18.1656 35.9288 20.7712 44.9682 24.1174 49.94C25.7916 52.3745 27.7483 55.094 30.3085 54.9975C32.8138 54.8918 33.7495 53.3728 36.7737 53.3728C39.7698 53.3728 40.6477 54.9975 43.2598 54.9362C45.9482 54.8918 47.642 52.4909 49.2574 50.0333C50.4603 48.2986 51.3859 46.3814 52 44.3527C48.8407 42.9938 46.7309 39.7604 46.7272 36.2719Z" fill="white"/>
<path d="M41.7931 21.4119C43.2589 19.6224 43.9811 17.3223 43.8062 15C41.5668 15.2392 39.4982 16.3277 38.0126 18.0485C36.5599 19.7299 35.8039 21.9895 35.9468 24.223C38.187 24.2465 40.3893 23.1875 41.7931 21.4119Z" fill="white"/>
<path d="M136.106 34.1784V37.6759H133.906V39.9696H136.106V47.7631C136.106 50.4242 137.314 51.4887 140.353 51.4887C140.887 51.4887 141.395 51.4253 141.84 51.3493V49.081C141.459 49.119 141.217 49.1443 140.798 49.1443C139.437 49.1443 138.84 48.5107 138.84 47.0661V39.9696H141.84V37.6759H138.84V34.1784H136.106Z" fill="white"/>
<path d="M149.583 51.6788C153.626 51.6788 156.106 48.9796 156.106 44.5063C156.106 40.0583 153.613 37.3465 149.583 37.3465C145.539 37.3465 143.047 40.0583 143.047 44.5063C143.047 48.9796 145.527 51.6788 149.583 51.6788ZM149.583 49.2584C147.205 49.2584 145.87 47.5223 145.87 44.5063C145.87 41.5156 147.205 39.7669 149.583 39.7669C151.948 39.7669 153.296 41.5156 153.296 44.5063C153.296 47.5096 151.948 49.2584 149.583 49.2584Z" fill="white"/>
<path d="M158.227 51.4127H160.961V43.2644C160.961 41.3256 162.423 40.0203 164.495 40.0203C164.978 40.0203 165.792 40.109 166.021 40.1851V37.4985C165.729 37.4225 165.207 37.3845 164.8 37.3845C162.995 37.3845 161.456 38.3729 161.062 39.7289H160.859V37.6126H158.227V51.4127Z" fill="white"/>
<path d="M172.807 39.6655C174.829 39.6655 176.151 41.0721 176.214 43.2391H169.221C169.374 41.0848 170.785 39.6655 172.807 39.6655ZM176.202 47.687C175.693 48.7642 174.562 49.3598 172.91 49.3598C170.723 49.3598 169.31 47.8264 169.221 45.406V45.2539H178.999V44.3035C178.999 39.9696 176.672 37.3465 172.82 37.3465C168.916 37.3465 166.438 40.147 166.438 44.557C166.438 48.9669 168.865 51.6788 172.832 51.6788C175.998 51.6788 178.212 50.1581 178.835 47.687H176.202Z" fill="white"/>
<path d="M118.18 46.3165C118.391 49.7052 121.224 51.8724 125.441 51.8724C129.948 51.8724 132.768 49.6001 132.768 45.975C132.768 43.1248 131.161 41.5487 127.26 40.6424L125.164 40.1302C122.687 39.5523 121.685 38.7774 121.685 37.4245C121.685 35.717 123.24 34.6006 125.573 34.6006C127.787 34.6006 129.316 35.6908 129.592 37.4377H132.465C132.294 34.246 129.474 32 125.612 32C121.461 32 118.694 34.246 118.694 37.6215C118.694 40.406 120.262 42.061 123.702 42.8622L126.153 43.4532C128.67 44.0443 129.777 44.9111 129.777 46.3559C129.777 48.0371 128.037 49.2586 125.665 49.2586C123.122 49.2586 121.356 48.1159 121.105 46.3165H118.18Z" fill="white"/>
<path d="M89.8597 37.3845C87.9779 37.3845 86.3504 38.3222 85.5112 39.8936H85.3078V37.6126H82.6758V56H85.4095V49.3217H85.6257C86.3504 50.779 87.9144 51.6408 89.8852 51.6408C93.3818 51.6408 95.6069 48.8909 95.6069 44.5063C95.6069 40.1217 93.3818 37.3845 89.8597 37.3845ZM89.0841 49.195C86.7954 49.195 85.3587 47.3956 85.3587 44.519C85.3587 41.6297 86.7954 39.8302 89.0968 39.8302C91.411 39.8302 92.7969 41.5917 92.7969 44.5063C92.7969 47.4336 91.411 49.195 89.0841 49.195Z" fill="white"/>
<path d="M105.172 37.3845C103.29 37.3845 101.663 38.3222 100.824 39.8936H100.62V37.6126H97.9883V56H100.722V49.3217H100.938C101.663 50.779 103.227 51.6408 105.198 51.6408C108.694 51.6408 110.919 48.8909 110.919 44.5063C110.919 40.1217 108.694 37.3845 105.172 37.3845ZM104.397 49.195C102.108 49.195 100.671 47.3956 100.671 44.519C100.671 41.6297 102.108 39.8302 104.409 39.8302C106.723 39.8302 108.109 41.5917 108.109 44.5063C108.109 47.4336 106.723 49.195 104.397 49.195Z" fill="white"/>
<path d="M77.7717 51.4127H80.9082L74.0421 32.4597H70.8661L64 51.4127H67.0311L68.7838 46.3822H76.0321L77.7717 51.4127ZM72.3025 35.9009H72.5266L75.2809 43.9129H69.535L72.3025 35.9009Z" fill="white"/>
<path d="M66 15.4625V24.8632H69.5022C72.3927 24.8632 74.0665 23.1368 74.0665 20.1336C74.0665 17.1759 72.3793 15.4625 69.5022 15.4625H66ZM67.5058 16.7915H69.3342C71.3441 16.7915 72.5339 18.0293 72.5339 20.1531C72.5339 22.3095 71.3643 23.5342 69.3342 23.5342H67.5058V16.7915Z" fill="white"/>
<path d="M79.1934 25C81.3311 25 82.6419 23.6124 82.6419 21.3127C82.6419 19.0261 81.3244 17.6319 79.1934 17.6319C77.0558 17.6319 75.7383 19.0261 75.7383 21.3127C75.7383 23.6124 77.0491 25 79.1934 25ZM79.1934 23.7557C77.9364 23.7557 77.2306 22.8632 77.2306 21.3127C77.2306 19.7753 77.9364 18.8762 79.1934 18.8762C80.4438 18.8762 81.1563 19.7753 81.1563 21.3127C81.1563 22.8567 80.4438 23.7557 79.1934 23.7557Z" fill="white"/>
<path d="M93.8039 17.7687H92.3586L91.0545 23.1824H90.9402L89.4345 17.7687H88.0497L86.544 23.1824H86.4364L85.1256 17.7687H83.6602L85.6768 24.8632H87.1624L88.6681 19.6384H88.7824L90.2949 24.8632H91.7939L93.8039 17.7687Z" fill="white"/>
<path d="M95.4688 24.8632H96.914V20.7134C96.914 19.6059 97.5929 18.9153 98.6618 18.9153C99.7306 18.9153 100.241 19.4821 100.241 20.6222V24.8632H101.686V20.2704C101.686 18.5831 100.786 17.6319 99.1525 17.6319C98.05 17.6319 97.3241 18.1075 96.9678 18.8958H96.8603V17.7687H95.4688V24.8632Z" fill="white"/>
<path d="M103.963 24.8632H105.408V15H103.963V24.8632Z" fill="white"/>
<path d="M110.844 25C112.982 25 114.293 23.6124 114.293 21.3127C114.293 19.0261 112.975 17.6319 110.844 17.6319C108.707 17.6319 107.389 19.0261 107.389 21.3127C107.389 23.6124 108.7 25 110.844 25ZM110.844 23.7557C109.587 23.7557 108.881 22.8632 108.881 21.3127C108.881 19.7753 109.587 18.8762 110.844 18.8762C112.095 18.8762 112.807 19.7753 112.807 21.3127C112.807 22.8567 112.095 23.7557 110.844 23.7557Z" fill="white"/>
<path d="M118.597 23.8013C117.81 23.8013 117.239 23.43 117.239 22.7915C117.239 22.1661 117.696 21.8339 118.704 21.7687L120.493 21.658V22.2508C120.493 23.1303 119.686 23.8013 118.597 23.8013ZM118.227 24.9805C119.188 24.9805 119.988 24.5766 120.425 23.8665H120.54V24.8632H121.931V20.0163C121.931 18.5179 120.896 17.6319 119.061 17.6319C117.4 17.6319 116.217 18.4137 116.069 19.6319H117.468C117.629 19.1303 118.187 18.8437 118.994 18.8437C119.982 18.8437 120.493 19.2671 120.493 20.0163V20.6287L118.51 20.7394C116.769 20.8437 115.787 21.5798 115.787 22.8567C115.787 24.1531 116.816 24.9805 118.227 24.9805Z" fill="white"/>
<path d="M126.838 24.9805C127.846 24.9805 128.7 24.5179 129.137 23.7427H129.251V24.8632H130.636V15H129.19V18.8958H129.083C128.686 18.114 127.839 17.6515 126.838 17.6515C124.989 17.6515 123.799 19.0717 123.799 21.3127C123.799 23.5603 124.976 24.9805 126.838 24.9805ZM127.248 18.9088C128.458 18.9088 129.217 19.8404 129.217 21.3192C129.217 22.8046 128.464 23.7231 127.248 23.7231C126.024 23.7231 125.291 22.8176 125.291 21.3127C125.291 19.8209 126.031 18.9088 127.248 18.9088Z" fill="white"/>
<path d="M140.007 25C142.144 25 143.455 23.6124 143.455 21.3127C143.455 19.0261 142.137 17.6319 140.007 17.6319C137.869 17.6319 136.551 19.0261 136.551 21.3127C136.551 23.6124 137.862 25 140.007 25ZM140.007 23.7557C138.75 23.7557 138.044 22.8632 138.044 21.3127C138.044 19.7753 138.75 18.8762 140.007 18.8762C141.257 18.8762 141.969 19.7753 141.969 21.3127C141.969 22.8567 141.257 23.7557 140.007 23.7557Z" fill="white"/>
<path d="M145.367 24.8632H146.812V20.7134C146.812 19.6059 147.491 18.9153 148.56 18.9153C149.629 18.9153 150.14 19.4821 150.14 20.6222V24.8632H151.585V20.2704C151.585 18.5831 150.684 17.6319 149.051 17.6319C147.948 17.6319 147.222 18.1075 146.866 18.8958H146.759V17.7687H145.367V24.8632Z" fill="white"/>
<path d="M158.241 16.0033V17.8013H157.078V18.9805H158.241V22.987C158.241 24.3551 158.88 24.9023 160.487 24.9023C160.769 24.9023 161.038 24.8697 161.273 24.8306V23.6645C161.071 23.684 160.944 23.6971 160.722 23.6971C160.003 23.6971 159.687 23.3713 159.687 22.6287V18.9805H161.273V17.8013H159.687V16.0033H158.241Z" fill="white"/>
<path d="M163.215 24.8632H164.66V20.7199C164.66 19.645 165.319 18.9218 166.502 18.9218C167.524 18.9218 168.068 19.4951 168.068 20.6287V24.8632H169.514V20.2834C169.514 18.5961 168.552 17.6384 166.993 17.6384C165.89 17.6384 165.117 18.114 164.761 18.9088H164.647V15H163.215V24.8632Z" fill="white"/>
<path d="M174.726 18.8241C175.795 18.8241 176.494 19.5472 176.528 20.6612H172.831C172.911 19.5538 173.658 18.8241 174.726 18.8241ZM176.521 22.9479C176.252 23.5016 175.654 23.8078 174.78 23.8078C173.624 23.8078 172.878 23.0196 172.831 21.7753V21.6971H178V21.2085C178 18.9805 176.77 17.6319 174.733 17.6319C172.669 17.6319 171.359 19.0717 171.359 21.3388C171.359 23.6059 172.642 25 174.74 25C176.414 25 177.583 24.2182 177.913 22.9479H176.521Z" fill="white"/>
</svg>
