<svg width="1033" height="423" viewBox="0 0 1033 423" fill="none" xmlns="http://www.w3.org/2000/svg">
<path fill-rule="evenodd" clip-rule="evenodd" d="M404.981 55.8824C404.769 59.0502 405.251 62.7637 406.217 70.1906C407.183 77.6175 407.665 81.331 408.681 84.3391C412.852 96.6923 424.054 105.317 437.063 106.19C440.231 106.403 443.945 105.92 451.371 104.955L627.055 82.1137C634.482 81.1481 638.195 80.6653 641.203 79.6496C653.556 75.4784 662.181 64.2766 663.054 51.2675C663.267 48.0996 662.784 44.3862 661.819 36.9593C660.853 29.5324 660.37 25.8189 659.355 22.8108C655.183 10.4576 643.982 1.83337 630.972 0.959636C627.805 0.74687 624.091 1.22966 616.664 2.19525L440.981 25.0362C433.554 26.0018 429.841 26.4846 426.833 27.5003C414.479 31.6714 405.855 42.8733 404.981 55.8824ZM26.2037 134.798C25.9909 137.966 26.4737 141.68 27.4393 149.106C28.4049 156.533 28.8877 160.247 29.9034 163.255C34.0745 175.608 45.2763 184.232 58.2854 185.106C61.4533 185.319 65.1668 184.836 72.5937 183.87L117.565 178.024C124.992 177.058 128.705 176.575 131.713 175.56C144.066 171.388 152.691 160.187 153.564 147.178C153.777 144.01 153.294 140.296 152.329 132.869L152.329 132.869C151.363 125.442 150.88 121.729 149.865 118.721C145.693 106.368 134.492 97.7434 121.483 96.8696C118.315 96.6569 114.601 97.1397 107.174 98.1053L62.2033 103.952C54.7764 104.918 51.0629 105.4 48.0548 106.416C35.7016 110.587 27.0774 121.789 26.2037 134.798ZM118.673 285.163C118.46 288.331 118.943 292.044 119.908 299.471C120.874 306.898 121.357 310.611 122.372 313.62C126.544 325.973 137.745 334.597 150.754 335.471C153.922 335.684 157.636 335.201 165.063 334.235L312.113 315.117L312.113 315.117C319.54 314.151 323.253 313.668 326.261 312.653C338.614 308.482 347.239 297.28 348.112 284.271C348.325 281.103 347.842 277.389 346.877 269.962C345.911 262.536 345.428 258.822 344.413 255.814C340.241 243.461 329.04 234.837 316.03 233.963C312.863 233.75 309.149 234.233 301.722 235.198L154.672 254.317C147.245 255.282 143.532 255.765 140.524 256.781C128.171 260.952 119.546 272.154 118.673 285.163ZM404.605 323.967C403.64 316.54 403.157 312.827 403.37 309.659C404.243 296.65 412.868 285.448 425.221 281.277C428.229 280.261 431.942 279.778 439.369 278.813L439.369 278.813L490.372 272.182C497.799 271.216 501.512 270.734 504.68 270.946C517.689 271.82 528.891 280.444 533.062 292.797C534.078 295.806 534.56 299.519 535.526 306.946C536.492 314.373 536.974 318.086 536.762 321.254C535.888 334.263 527.264 345.465 514.911 349.636C511.902 350.652 508.189 351.135 500.762 352.1L500.762 352.1L449.76 358.731C442.333 359.697 438.619 360.18 435.451 359.967C422.442 359.093 411.241 350.469 407.069 338.116C406.054 335.108 405.571 331.394 404.605 323.967ZM0.959758 411.667C0.746992 414.835 1.22979 418.549 2.19537 425.976C3.16096 433.403 3.64376 437.116 4.65948 440.124C8.83063 452.477 20.0324 461.102 33.0415 461.975C36.2094 462.188 39.9229 461.705 47.3497 460.74L325.073 424.632L325.074 424.632C332.5 423.667 336.214 423.184 339.222 422.168C351.575 417.997 360.199 406.795 361.073 393.786C361.286 390.618 360.803 386.905 359.837 379.478L359.837 379.477C358.872 372.051 358.389 368.338 357.373 365.329C353.202 352.976 342 344.352 328.991 343.478C325.823 343.266 322.11 343.748 314.683 344.714L36.9594 380.821L36.9589 380.821C29.5323 381.787 25.819 382.27 22.8109 383.285C10.4577 387.457 1.83349 398.658 0.959758 411.667ZM222.47 151.095L222.47 151.095L222.469 151.094L222.469 151.093L222.469 151.093L222.469 151.092L222.469 151.092L222.469 151.091L222.469 151.09L222.469 151.09L222.469 151.089C221.504 143.666 221.021 139.954 221.234 136.787C222.108 123.778 230.732 112.576 243.085 108.405C246.093 107.389 249.807 106.906 257.234 105.941L290.294 101.642C297.721 100.677 301.435 100.194 304.603 100.407C317.612 101.281 328.814 109.905 332.985 122.258C334 125.266 334.483 128.979 335.449 136.406L335.449 136.406C336.414 143.833 336.897 147.547 336.684 150.715C335.811 163.724 327.187 174.926 314.833 179.097C311.825 180.112 308.112 180.595 300.685 181.561L267.624 185.859C260.197 186.825 256.484 187.308 253.316 187.095C240.307 186.221 229.105 177.597 224.934 165.244C223.918 162.236 223.435 158.522 222.47 151.095ZM875.257 74.2268C874.291 66.7999 873.809 63.0865 874.021 59.9186C874.895 46.9095 883.519 35.7077 895.872 31.5365C898.881 30.5208 902.594 30.038 910.021 29.0724L1085.7 6.23148C1093.13 5.26589 1096.84 4.78309 1100.01 4.99586C1113.02 5.8696 1124.22 14.4938 1128.39 26.847C1129.41 29.8552 1129.89 33.5686 1130.86 40.9955C1131.82 48.4224 1132.31 52.1359 1132.09 55.3037C1131.22 68.3128 1122.6 79.5147 1110.24 83.6858C1107.23 84.7015 1103.52 85.1843 1096.09 86.1499L920.411 108.991C912.984 109.956 909.271 110.439 906.103 110.226C893.094 109.353 881.892 100.729 877.721 88.3753C876.705 85.3672 876.222 81.6537 875.257 74.2268ZM809.549 232.383C809.336 235.551 809.819 239.265 810.784 246.692C811.75 254.119 812.233 257.832 813.248 260.84C817.419 273.193 828.621 281.818 841.63 282.691C844.798 282.904 848.511 282.421 855.937 281.456L855.939 281.456L912.808 274.062L912.809 274.062L912.811 274.062L912.812 274.061C920.236 273.096 923.949 272.613 926.956 271.598C939.309 267.427 947.934 256.225 948.807 243.216C949.02 240.048 948.537 236.335 947.572 228.908C946.606 221.481 946.123 217.767 945.108 214.759C940.936 202.406 929.735 193.782 916.725 192.908C913.558 192.695 909.844 193.178 902.417 194.144L845.548 201.537C838.121 202.503 834.408 202.986 831.4 204.001C819.047 208.172 810.422 219.374 809.549 232.383ZM964.195 152.743C963.23 145.316 962.747 141.603 962.96 138.435C963.833 125.426 972.458 114.224 984.811 110.053C987.819 109.037 991.532 108.555 998.959 107.589L1055.83 100.195C1063.26 99.2297 1066.97 98.7469 1070.14 98.9597C1083.15 99.8334 1094.35 108.458 1098.52 120.811C1099.53 123.819 1100.02 127.532 1100.98 134.959C1101.95 142.386 1102.43 146.1 1102.22 149.268C1101.34 162.277 1092.72 173.478 1080.37 177.65C1077.36 178.665 1073.65 179.148 1066.22 180.114L1009.35 187.507C1001.92 188.473 998.209 188.956 995.042 188.743C982.032 187.869 970.831 179.245 966.659 166.892C965.644 163.884 965.161 160.17 964.195 152.743ZM752.96 383.435C752.747 386.603 753.23 390.316 754.195 397.743C755.161 405.17 755.644 408.884 756.659 411.892C760.831 424.245 772.032 432.869 785.042 433.743C788.209 433.956 791.923 433.473 799.35 432.507L955.938 412.149C963.365 411.183 967.078 410.701 970.086 409.685C982.439 405.514 991.064 394.312 991.937 381.303C992.15 378.135 991.667 374.422 990.702 366.998V366.997L990.702 366.995C989.736 359.568 989.253 355.854 988.238 352.846C984.066 340.493 972.865 331.869 959.856 330.995C956.688 330.782 952.974 331.265 945.547 332.231L788.959 352.589C781.532 353.555 777.819 354.037 774.811 355.053C762.458 359.224 753.833 370.426 752.96 383.435ZM736.64 120.029C735.675 112.602 735.192 108.888 735.405 105.721C736.278 92.7114 744.903 81.5096 757.256 77.3384C760.264 76.3227 763.977 75.8399 771.404 74.8743L787.635 72.7642C795.062 71.7986 798.775 71.3158 801.943 71.5285C814.952 72.4023 826.154 81.0265 830.325 93.3797C831.341 96.3877 831.824 100.101 832.789 107.527L832.789 107.528C833.755 114.955 834.238 118.669 834.025 121.836C833.151 134.846 824.527 146.047 812.174 150.218C809.166 151.234 805.452 151.717 798.025 152.683L781.795 154.793C774.368 155.758 770.654 156.241 767.486 156.028C754.477 155.155 743.275 146.53 739.104 134.177C738.089 131.169 737.606 127.456 736.64 120.029ZM538.763 190.476C538.55 193.644 539.033 197.357 539.998 204.784C540.964 212.211 541.446 215.925 542.462 218.933C546.633 231.286 557.835 239.91 570.844 240.784C574.012 240.997 577.726 240.514 585.153 239.548L653.26 230.694C660.687 229.728 664.4 229.245 667.408 228.229C679.761 224.058 688.386 212.856 689.259 199.847C689.472 196.68 688.989 192.966 688.024 185.539C687.058 178.112 686.575 174.399 685.56 171.391C681.388 159.037 670.187 150.413 657.178 149.54C654.01 149.327 650.296 149.81 642.869 150.775L574.762 159.63C567.335 160.595 563.622 161.078 560.614 162.094C548.26 166.265 539.636 177.467 538.763 190.476ZM641.543 318.132C640.577 310.705 640.095 306.992 640.307 303.824C641.181 290.815 649.805 279.613 662.159 275.442C665.167 274.426 668.88 273.943 676.307 272.978L698.725 270.063C706.152 269.097 709.866 268.615 713.033 268.827C726.043 269.701 737.244 278.325 741.416 290.678C742.431 293.687 742.914 297.4 743.88 304.827C744.845 312.254 745.328 315.967 745.115 319.135C744.242 332.144 735.617 343.346 723.264 347.517C720.256 348.533 716.543 349.016 709.116 349.981L709.116 349.981L686.697 352.896C679.271 353.862 675.557 354.344 672.389 354.132C659.38 353.258 648.178 344.634 644.007 332.28C642.991 329.272 642.509 325.559 641.543 318.132ZM356.627 189.663C356.414 192.831 356.897 196.545 357.862 203.972C358.828 211.399 359.311 215.112 360.326 218.12C364.498 230.473 375.699 239.098 388.709 239.971C391.876 240.184 395.59 239.701 403.017 238.736L407.239 238.187C414.666 237.221 418.379 236.738 421.387 235.723C433.74 231.552 442.365 220.35 443.238 207.341C443.451 204.173 442.968 200.459 442.003 193.032L442.003 193.032C441.037 185.605 440.554 181.892 439.539 178.884C435.367 166.531 424.166 157.907 411.156 157.033C407.989 156.82 404.275 157.303 396.848 158.268L392.626 158.817C385.199 159.783 381.486 160.266 378.478 161.281C366.125 165.453 357.5 176.654 356.627 189.663Z" fill="url(#paint0_linear_1618_83964)"/>
<defs>
<linearGradient id="paint0_linear_1618_83964" x1="962" y1="411" x2="300" y2="-402" gradientUnits="userSpaceOnUse">
<stop stop-color="white" stop-opacity="0.24"/>
<stop offset="1" stop-color="white" stop-opacity="0"/>
</linearGradient>
</defs>
</svg>
