<svg width="1440" height="796" viewBox="0 0 1440 796" fill="none" xmlns="http://www.w3.org/2000/svg">
<g clip-path="url(#clip0_1819_86114)">
<path fill-rule="evenodd" clip-rule="evenodd" d="M771.854 334.114L771.821 334.658C771.302 343.101 770.79 351.432 768.488 359.517C761.889 382.692 747.58 399.124 725.259 408.398C714.535 412.855 703.241 415.216 691.806 416.723C675.7 418.847 659.58 420.831 643.456 422.815L643.454 422.815L643.453 422.815L643.446 422.816L643.43 422.818C636.239 423.703 629.047 424.587 621.855 425.485C614.757 426.371 607.659 427.268 600.56 428.166L600.556 428.167L600.552 428.167L600.547 428.168L600.544 428.168C583.403 430.336 566.26 432.505 549.098 434.502C545.738 434.895 542.378 435.322 539.017 435.75H539.017H539.017H539.017C525.311 437.495 511.589 439.242 497.714 438.58C491.285 438.276 484.724 437.698 478.522 436.086C454.599 429.866 438.033 414.96 428.599 392.164C424.341 381.886 422.283 371.029 420.738 360.067L420.645 359.41C418.485 344.163 416.322 328.895 416.518 313.453C416.774 293.796 422.767 276.273 436.203 261.557C447.392 249.296 461.502 242.165 477.422 238.866C490.992 236.049 504.769 234.096 518.518 232.257C535.174 230.016 551.861 227.991 568.548 225.966L568.548 225.966L568.549 225.966C574.244 225.274 579.94 224.583 585.633 223.884C587.807 223.617 589.98 223.349 592.153 223.082L592.153 223.082L592.153 223.082L592.153 223.082C606.413 221.327 620.673 219.572 634.941 217.91L635.977 217.789C648.632 216.312 661.297 214.834 673.989 213.643C685.51 212.552 697.087 212.647 708.371 215.52C733.063 221.807 750.074 237.026 759.547 260.627C763.87 271.399 765.966 282.74 767.36 294.194C768.514 303.664 769.548 313.149 770.582 322.631L770.584 322.649L770.584 322.654L770.585 322.659L770.587 322.677L770.589 322.694C771.005 326.511 771.421 330.328 771.845 334.143L771.854 334.114ZM1085.97 572.456C1087.75 572.578 1089.39 572.691 1090.84 572.838L1090.82 572.829C1093.36 572.671 1095.64 572.551 1097.77 572.439C1102 572.217 1105.58 572.029 1109.13 571.644C1121.47 570.298 1133.81 568.818 1146.14 567.338C1148.06 567.107 1149.98 566.877 1151.9 566.647C1173.83 564.02 1195.74 561.393 1217.65 558.701C1239.88 555.97 1262.1 553.22 1284.31 550.385C1297.63 548.678 1310.91 546.639 1323.55 541.841C1347.56 532.719 1362.99 515.651 1369.43 490.855C1371.08 484.512 1371.64 477.77 1371.86 471.189C1372.38 455.697 1370.15 440.398 1367.93 425.118L1367.92 425.07L1367.92 425.033L1367.75 423.863C1367.67 423.317 1367.59 422.77 1367.51 422.223C1365.96 411.575 1363.81 401.059 1359.53 391.131C1349.85 368.639 1333.15 354.122 1309.41 348.015C1297.18 344.877 1284.64 345.085 1272.19 346.299C1260.41 347.446 1248.64 348.861 1236.87 350.274L1236.83 350.279C1233.73 350.651 1230.63 351.024 1227.53 351.391C1208.27 353.676 1189.02 356.009 1169.77 358.379C1145.04 361.414 1120.32 364.476 1095.6 367.587C1083.85 369.066 1072.15 370.858 1060.76 374.243C1045.21 378.861 1032 386.968 1021.89 399.893C1011.37 413.348 1006.54 428.737 1006.07 445.606C1005.62 461.465 1007.83 477.113 1010.05 492.753L1010.12 493.255L1010.12 493.285L1010.12 493.315L1010.13 493.345C1010.19 493.76 1010.25 494.176 1010.3 494.591C1011.85 505.543 1013.96 516.4 1018.33 526.641C1028.46 550.394 1046.09 565.366 1071.41 570.733C1076.43 571.8 1081.6 572.155 1085.97 572.456ZM1012.99 710.985C1006.83 723.302 1005.25 736.549 1005.29 754.821L1005.28 754.849C1005.53 757.083 1005.82 759.606 1006.12 762.346C1007.05 770.617 1008.19 780.862 1009.47 791.09C1010.76 801.435 1012.68 811.695 1016.45 821.471C1026.55 847.718 1045.25 863.914 1073.04 869.167C1086.08 871.632 1099.18 870.741 1112.23 869.281C1123.79 867.993 1135.35 866.568 1146.9 865.143L1146.91 865.142L1146.92 865.141L1146.93 865.139C1151.96 864.518 1156.99 863.897 1162.03 863.288C1169.75 862.353 1177.47 861.423 1185.2 860.494L1185.31 860.481C1199.63 858.757 1213.94 857.034 1228.26 855.275C1240.39 853.787 1252.52 852.269 1264.65 850.752C1276.77 849.235 1288.9 847.718 1301.03 846.229C1311.52 844.94 1322.01 843.68 1332.5 842.419L1332.52 842.418L1332.53 842.417L1332.54 842.415L1332.55 842.414C1343.96 841.043 1355.38 839.671 1366.79 838.264C1399.04 834.282 1431.28 830.28 1463.51 826.174C1474.95 824.724 1486.3 822.628 1497.17 818.598C1521.61 809.543 1537.31 792.37 1543.83 767.176C1545.43 760.975 1546.02 754.404 1546.24 747.975C1546.77 732.759 1544.61 717.732 1542.46 702.726L1542.45 702.674L1542.44 702.624C1542.29 701.57 1542.14 700.517 1541.99 699.464C1540.45 688.654 1538.3 677.977 1534.01 667.878C1524.57 645.681 1508.21 631.239 1484.96 624.772C1475.76 622.212 1466.23 621.539 1456.76 622.316C1438.99 623.777 1421.26 625.597 1403.55 627.617C1388.93 629.286 1374.32 631.123 1359.72 632.961L1359.69 632.965C1352.4 633.882 1345.1 634.799 1337.81 635.696C1328.18 636.876 1318.55 638.04 1308.92 639.204C1299.29 640.368 1289.66 641.532 1280.04 642.713C1268.25 644.156 1256.46 645.619 1244.68 647.081L1244.64 647.086C1234.53 648.341 1224.42 649.596 1214.3 650.839C1206.65 651.775 1198.99 652.7 1191.33 653.624L1191.3 653.628C1182.37 654.705 1173.44 655.782 1164.51 656.879C1146.13 659.139 1127.74 661.431 1109.36 663.724L1105.03 664.264L1098.32 665.1C1085.94 666.646 1073.61 668.391 1061.55 671.747C1039.68 677.835 1023.2 690.55 1012.99 710.985ZM638.687 541.149C636.553 548.962 635.956 556.994 636.155 565.091L636.164 565.082C636.392 580.263 638.421 595.273 640.64 610.265C642.214 620.904 644.319 631.448 648.662 641.347C659.178 665.328 677.213 680.148 703.033 685.202C716.384 687.82 729.792 686.947 743.152 685.44C762.904 683.211 782.627 680.784 802.34 678.271C815.501 676.593 828.644 674.563 841.084 669.699C866.8 659.638 882.379 640.968 887.727 613.877C889.482 605.002 889.757 595.994 888.884 586.995C887.87 576.48 886.836 565.954 885.48 555.476C883.916 543.415 881.82 531.43 877.117 520.108C867.568 497.142 850.794 482.293 826.69 476.044C814.781 472.953 802.549 472.896 790.43 474.223C765.189 476.992 739.976 480.064 714.781 483.288C703.498 484.73 692.365 487.157 681.812 491.604C659.358 501.068 645.068 517.718 638.687 541.149ZM525.185 872.239C501.802 872.495 485.104 869.015 470.312 858.443C454.069 846.836 444.463 830.906 440.281 811.752C437.731 800.06 435.939 788.17 434.564 776.279C433.35 765.801 432.563 755.191 432.705 744.656C432.99 723.672 440.727 705.608 456.06 691.025C466.67 680.926 479.538 675.113 493.6 671.918C513.2 667.471 533.131 665.252 553.186 664.37C562.374 663.962 571.534 664.835 580.372 667.518C604.542 674.848 620.927 690.522 629.622 714.199C633.339 724.326 635.349 734.88 636.582 745.557C636.728 746.827 636.875 748.096 637.022 749.366C638.327 760.634 639.633 771.913 640.204 783.23C640.593 790.882 640.204 798.809 638.659 806.29C633.301 832.129 618.044 850.136 593.628 860.244C583.197 864.568 572.179 866.711 561.028 868.105C550.95 869.36 540.856 870.494 532.937 871.383C530.031 871.71 527.417 872.003 525.204 872.258L525.185 872.239ZM1461.53 574.071C1476.85 586.047 1494.46 590.219 1515.71 589.868L1515.69 589.859C1533.33 588.844 1553.12 586.853 1572.58 582.501C1586.98 579.286 1600.15 573.436 1610.99 563.081C1626.44 548.327 1633.77 530.055 1634.36 508.909C1634.74 495.301 1632.99 481.837 1631.25 468.394L1631.12 467.415C1629.62 455.837 1627.93 444.26 1623.97 433.194C1614.1 405.62 1594.9 388.741 1565.97 383.337C1557.71 381.791 1549.33 381.459 1540.96 382.275C1539.54 382.413 1538.13 382.55 1536.72 382.687C1527.45 383.585 1518.18 384.484 1508.94 385.669C1496.72 387.243 1484.51 389.216 1473.09 394.108C1444.78 406.236 1429.4 427.846 1426.8 458.474C1425.6 472.716 1427.29 486.863 1429.26 500.935C1430.67 511.071 1432.27 521.236 1434.63 531.193C1438.72 548.422 1447.37 562.986 1461.53 574.071Z" fill="url(#paint0_linear_1819_86114)"/>
</g>
<defs>
<linearGradient id="paint0_linear_1819_86114" x1="1451.23" y1="799.307" x2="487.664" y2="-91.7968" gradientUnits="userSpaceOnUse">
<stop stop-color="white" stop-opacity="0.24"/>
<stop offset="1" stop-color="white" stop-opacity="0"/>
</linearGradient>
<clipPath id="clip0_1819_86114">
<rect width="1440" height="796" fill="white"/>
</clipPath>
</defs>
</svg>
