<svg width="146" height="36" viewBox="0 0 146 36" fill="none" xmlns="http://www.w3.org/2000/svg">
<path fill-rule="evenodd" clip-rule="evenodd" d="M129.477 35.5556C126.133 35.5556 123.119 34.7902 120.436 33.2595C117.752 31.7288 115.64 29.6296 114.1 26.9619C112.604 24.2504 111.856 21.2109 111.856 17.8434C111.856 14.6508 112.604 11.6988 114.1 8.98729C115.596 6.23206 117.664 4.04538 120.304 2.42723C122.943 0.809076 125.891 0 129.147 0C132.623 0 135.615 0.743476 138.122 2.23042C140.63 3.71737 142.522 5.75099 143.798 8.33128C145.118 10.9116 145.778 13.7761 145.778 16.925C145.778 17.9308 145.712 18.893 145.58 19.8114H120.304C120.744 22.4792 121.8 24.5128 123.471 25.9123C125.187 27.268 127.233 27.9459 129.609 27.9459C131.589 27.9459 133.283 27.5304 134.691 26.6995C136.142 25.8248 137.286 24.6658 138.122 23.2226L145.118 26.6339C141.686 32.5817 136.472 35.5556 129.477 35.5556ZM127.776 10.9997C127.776 12.6467 126.433 13.9819 124.776 13.9819C123.119 13.9819 121.776 12.6467 121.776 10.9997C121.776 9.35262 123.119 8.01742 124.776 8.01742C126.433 8.01742 127.776 9.35262 127.776 10.9997ZM134.205 13.9819C135.862 13.9819 137.206 12.6467 137.206 10.9997C137.206 9.35262 135.862 8.01742 134.205 8.01742C132.548 8.01742 131.205 9.35262 131.205 10.9997C131.205 12.6467 132.548 13.9819 134.205 13.9819ZM84.7466 0.145399H75.2391L85.166 34.6124H101.944L111.871 0.145399H102.363L94.1841 30.443H92.9257L84.7466 0.145399ZM22.9911 34.6123H38.1332L40.4254 0.366319H32.3681L30.84 26.327V30.4697H29.173V26.327L27.4365 0.366319H12.9889L11.2524 26.327V30.4697H9.5854V26.327L8.05729 0.366319H0L2.29216 34.6123H17.4343L19.3792 8.65164V4.50898H21.0462V8.65164L22.9911 34.6123ZM46.5956 32.4723C48.8834 34.5278 51.8092 35.5556 55.3729 35.5556C57.5288 35.5556 59.4206 35.1401 61.0485 34.3091C62.7204 33.4782 64.0623 32.4067 65.0742 31.0947H65.6021V34.5059H74.1155V13.9073C74.1155 9.35903 72.7736 5.90406 70.0898 3.54243C67.406 1.18081 63.4903 0 58.3427 0C55.4389 0 52.7551 0.56854 50.2913 1.70562C47.8275 2.8427 45.7816 4.46084 44.1538 6.56007L49.6973 10.8897C50.6653 9.7089 51.8752 8.76862 53.3271 8.06888C54.823 7.32541 56.3628 6.95367 57.9467 6.95367C60.2785 6.95367 62.1264 7.52221 63.4903 8.65929C64.8982 9.79636 65.6021 11.2833 65.6021 13.1201V14.5633C63.1383 13.5575 60.1686 13.0545 56.6928 13.0545C54.185 13.0545 51.8972 13.5137 49.8293 14.4321C47.7615 15.3506 46.1336 16.6626 44.9457 18.3682C43.7578 20.0738 43.1638 22.0418 43.1638 24.2722C43.1638 27.6397 44.3078 30.3731 46.5956 32.4723ZM52.7717 25.9108C54.4287 25.9108 55.7719 24.5756 55.7719 22.9285C55.7719 21.2814 54.4287 19.9462 52.7717 19.9462C51.1148 19.9462 49.7715 21.2814 49.7715 22.9285C49.7715 24.5756 51.1148 25.9108 52.7717 25.9108ZM65.2012 22.9285C65.2012 24.5756 63.8579 25.9108 62.201 25.9108C60.544 25.9108 59.2008 24.5756 59.2008 22.9285C59.2008 21.2814 60.544 19.9462 62.201 19.9462C63.8579 19.9462 65.2012 21.2814 65.2012 22.9285Z" fill="white"/>
</svg>
